<svg width="33" height="32" viewBox="0 0 33 32" fill="none" xmlns="http://www.w3.org/2000/svg">
    <path fill-rule="evenodd" clip-rule="evenodd"
        d="M25.3968 12.0477C24.9365 12.0477 24.4957 12.1291 24.0869 12.2776C23.6133 12.4497 23.0555 12.3819 22.7302 11.997L18.9446 7.51892C18.6375 7.15564 18.6529 6.63056 18.8071 6.18055C18.8904 5.93752 18.9357 5.67696 18.9357 5.40566C18.9357 4.07701 17.8574 3 16.5276 3C15.1973 3 14.1194 4.07701 14.1194 5.40566C14.1194 6.73431 15.1973 7.81132 16.5276 7.81132C16.659 7.81132 16.788 7.80075 16.9137 7.78044C17.3826 7.70467 17.9023 7.7774 18.209 8.14019L22.1749 12.8313C22.3978 13.095 22.3843 13.4787 22.1925 13.7658C22.0012 14.0522 21.6515 14.2153 21.3228 14.112L10.2962 10.6469C10.1581 10.6035 10.0715 10.4688 10.0715 10.324C10.0715 8.99539 8.99362 7.91837 7.66335 7.91837C6.33356 7.91837 5.25515 8.99539 5.25515 10.324C5.25515 11.6527 6.33356 12.7297 7.66335 12.7297C8.27699 12.7297 8.83645 12.5003 9.26139 12.1228C9.61612 11.8077 10.0938 11.5923 10.5465 11.7346L20.95 15.0035C21.3264 15.1218 21.5438 15.5022 21.5438 15.8967C21.5438 16.2561 21.3408 16.5988 20.9963 16.7011L10.5639 19.7981C10.1089 19.9332 9.63439 19.7099 9.28443 19.3892C8.8561 18.9967 8.28515 18.7571 7.65801 18.7571C6.32798 18.7571 5.24988 19.8341 5.24988 21.1627C5.24988 22.4914 6.32798 23.5684 7.65801 23.5684C8.98803 23.5684 10.0662 22.4914 10.0662 21.1627C10.0662 21.0404 10.1398 20.928 10.257 20.8932L21.2935 17.6167C21.6235 17.5187 21.9707 17.6874 22.1578 17.9763C22.3454 18.2658 22.3523 18.6492 22.1253 18.9089L18.2115 23.3885C17.899 23.7462 17.3785 23.8102 16.9109 23.7263C16.7732 23.7016 16.6315 23.6887 16.4866 23.6887C15.1568 23.6887 14.0784 24.7657 14.0784 26.0943C14.0784 27.423 15.1568 28.5 16.4866 28.5C17.8166 28.5 18.8948 27.423 18.8948 26.0943C18.8948 25.8369 18.8539 25.5894 18.7785 25.3573C18.6316 24.9046 18.6244 24.379 18.9376 24.0206L22.6652 19.7545C22.9969 19.375 23.5559 19.3163 24.027 19.4954C24.4526 19.6572 24.9143 19.7458 25.3968 19.7458C27.5249 19.7458 29.2499 18.0226 29.2499 15.8967C29.2499 13.7711 27.5249 12.0477 25.3968 12.0477Z"
        fill="url(#paint0_linear)" />
    <defs>
        <linearGradient id="paint0_linear" x1="44.4165" y1="15.75" x2="7.50699" y2="17.3539"
            gradientUnits="userSpaceOnUse">
            <stop stop-color="#FF8099" />
            <stop offset="1" stop-color="#F94569" />
        </linearGradient>
    </defs>
</svg>
